<svg width="1032" height="926" viewBox="0 0 1032 926" fill="none" xmlns="http://www.w3.org/2000/svg">
<path d="M241.561 628.151V809.939L463.606 827.616C463.606 827.616 658.814 700.737 767.399 695.833L763.142 610.415C763.142 610.415 475.205 693.367 241.561 628.092V628.151Z" fill="#D14444"/>
<path d="M222.504 821.685C214.282 501.859 144.28 91.565 144.28 91.565C144.28 91.565 450.158 -73.9562 811.357 51.2784C768.809 210.516 750.956 687.7 750.956 687.7" stroke="#222222" stroke-width="8.809" stroke-linecap="round" stroke-linejoin="round"/>
<path d="M216.338 692.163C-36.9504 654.695 -14.0764 764.514 37.192 836.777C88.431 909.07 236.687 956.639 501.133 887.106C683.039 839.273 766.489 916.411 880.889 914.561C1050.17 911.83 1114.24 688.551 840.632 686.701C567.024 684.881 423.349 890.747 291.596 901.729" stroke="#222222" stroke-width="8.809" stroke-linecap="round" stroke-linejoin="round"/>
<path d="M284.314 920.874C463.666 888.838 550.317 754.619 717.982 718.737C885.676 682.884 1003.04 722.025 1011.7 785.538C1018.31 834.046 995.73 867.462 995.73 867.462" stroke="#222222" stroke-width="8.809" stroke-linecap="round" stroke-linejoin="round"/>
<path d="M9.44336 783.483C58.8619 856.686 133.269 877.974 133.269 877.974" stroke="#222222" stroke-width="8.809" stroke-linecap="round" stroke-linejoin="round"/>
<path d="M221.389 787.388C330.004 819.424 475.205 812.993 475.205 812.993" stroke="#222222" stroke-width="8.809" stroke-linecap="round" stroke-linejoin="round"/>
<path d="M212.109 634.405C549.612 667.498 754.891 600.726 754.891 600.726" stroke="#222222" stroke-width="8.809" stroke-linecap="round" stroke-linejoin="round"/>
<path d="M212.11 711.425C157.053 709.605 84.4672 703.204 71.3418 737.059" stroke="#222222" stroke-width="8.809" stroke-linecap="round" stroke-linejoin="round"/>
<path d="M219.069 737.059C181.66 728.838 158.903 733.389 158.903 733.389" stroke="#222222" stroke-width="8.809" stroke-linecap="round" stroke-linejoin="round"/>
<path d="M81.1191 787.388C102.173 821.714 164.394 846.878 164.394 846.878" stroke="#222222" stroke-width="8.809" stroke-linecap="round" stroke-linejoin="round"/>
<path d="M904.674 737.06C980.637 751.712 1005.33 802.951 984.278 840.448C963.224 877.974 924.788 891.687 924.788 891.687" stroke="#222222" stroke-width="8.809" stroke-linecap="round" stroke-linejoin="round"/>
<path d="M612.772 787.388C698.778 752.622 777.471 734.593 777.471 734.593" stroke="#222222" stroke-width="8.809" stroke-linecap="round" stroke-linejoin="round"/>
<path d="M865.326 760.99C922.056 770.915 948.072 791.969 948.072 791.969" stroke="#222222" stroke-width="8.809" stroke-linecap="round" stroke-linejoin="round"/>
<path d="M229.346 671.168C261.381 674.839 297.058 671.168 297.058 671.168" stroke="#222222" stroke-width="8.809" stroke-linecap="round" stroke-linejoin="round"/>
<path d="M229.346 695.863C256.8 708.665 284.314 705.083 284.314 705.083" stroke="#222222" stroke-width="8.809" stroke-linecap="round" stroke-linejoin="round"/>
<path d="M229.346 727.898C256.8 735.21 278.764 732.127 278.764 732.127" stroke="#222222" stroke-width="8.809" stroke-linecap="round" stroke-linejoin="round"/>
<path d="M229.346 760.99C264.112 769.095 275.094 760.99 275.094 760.99" stroke="#222222" stroke-width="8.809" stroke-linecap="round" stroke-linejoin="round"/>
<path d="M164.395 108.39C217.454 80.9355 304.399 66.2832 304.399 66.2832" stroke="#222222" stroke-width="8.809" stroke-linecap="round" stroke-linejoin="round"/>
<path d="M181.777 150.967C222.034 133.584 275.123 119.842 275.123 119.842" stroke="#222222" stroke-width="8.809" stroke-linecap="round" stroke-linejoin="round"/>
<path d="M188.971 187.113C199.042 183.002 219.039 174.311 234.396 174.311" stroke="#222222" stroke-width="8.809" stroke-linecap="round" stroke-linejoin="round"/>
<path d="M256.83 168.791C284.255 162.389 304.369 162.389 304.369 162.389" stroke="#222222" stroke-width="8.809" stroke-linecap="round" stroke-linejoin="round"/>
<path d="M188.971 217.299C230.256 200.826 271.452 202.646 271.452 202.646" stroke="#222222" stroke-width="8.809" stroke-linecap="round" stroke-linejoin="round"/>
<path d="M199.16 237.442C226.615 230.131 242.177 230.131 242.177 230.131" stroke="#222222" stroke-width="8.809" stroke-linecap="round" stroke-linejoin="round"/>
<path d="M228.436 597.055C290.656 599.786 304.399 597.055 304.399 597.055" stroke="#222222" stroke-width="8.809" stroke-linecap="round" stroke-linejoin="round"/>
<path d="M228.436 576.001C243.088 577.822 266.402 576.001 266.402 576.001" stroke="#222222" stroke-width="8.809" stroke-linecap="round" stroke-linejoin="round"/>
<path d="M252.22 433.266C252.22 433.266 236.657 429.596 212.109 427.775L242.148 416.793" stroke="#222222" stroke-width="8.809" stroke-linecap="round" stroke-linejoin="round"/>
<path d="M497.463 35.1872C654.85 23.2951 789.364 66.3124 789.364 66.3124" stroke="#222222" stroke-width="8.809" stroke-linecap="round" stroke-linejoin="round"/>
<path d="M599.03 66.3125C722.562 65.4022 777.471 98.3479 777.471 98.3479" stroke="#222222" stroke-width="8.809" stroke-linecap="round" stroke-linejoin="round"/>
<path d="M688.266 104.749C721.652 104.074 769.25 119.842 769.25 119.842" stroke="#222222" stroke-width="8.809" stroke-linecap="round" stroke-linejoin="round"/>
<path d="M769.25 150.967C746.376 145.946 695.137 141.365 695.137 141.365" stroke="#222222" stroke-width="8.809" stroke-linecap="round" stroke-linejoin="round"/>
<path d="M745.465 628.151C683.244 649.204 545.061 671.168 545.061 671.168" stroke="#222222" stroke-width="8.809" stroke-linecap="round" stroke-linejoin="round"/>
<path d="M561.533 700.708C630.155 697.683 728.757 664.738 728.757 664.738" stroke="#222222" stroke-width="8.809" stroke-linecap="round" stroke-linejoin="round"/>
<path d="M608.191 719.676C663.101 707.784 682.304 695.892 682.304 695.892" stroke="#222222" stroke-width="8.809" stroke-linecap="round" stroke-linejoin="round"/>
<path d="M737.214 576.824C655.76 599.815 561.533 600.726 561.533 600.726" stroke="#222222" stroke-width="8.809" stroke-linecap="round" stroke-linejoin="round"/>
<path d="M570.665 587.688C621.904 585.398 649.359 578.38 649.359 578.38" stroke="#222222" stroke-width="8.809" stroke-linecap="round" stroke-linejoin="round"/>
<path d="M674.993 576.001C703.358 573.271 737.214 562.289 737.214 562.289" stroke="#222222" stroke-width="8.809" stroke-linecap="round" stroke-linejoin="round"/>
<path d="M617.354 562.289C668.593 556.798 706.119 539.15 732.194 533.013" stroke="#222222" stroke-width="8.809" stroke-linecap="round" stroke-linejoin="round"/>
<path d="M670.412 519.271C694.196 522.002 745.436 502.799 745.436 502.799" stroke="#222222" stroke-width="8.809" stroke-linecap="round" stroke-linejoin="round"/>
<path d="M695.137 491.817C727.172 487.236 745.466 475.344 745.466 475.344" stroke="#222222" stroke-width="8.809" stroke-linecap="round" stroke-linejoin="round"/>
<path d="M720.301 174.282C750.046 173.371 769.249 174.282 769.249 174.282" stroke="#222222" stroke-width="8.809" stroke-linecap="round" stroke-linejoin="round"/>
<path d="M501.133 887.135C627.425 856.95 637.467 837.717 690.556 842.298" stroke="#222222" stroke-width="8.809" stroke-linecap="round" stroke-linejoin="round"/>
</svg>
