<?xml version="1.0" encoding="UTF-8"?>
<svg  width="1748" height="2480" viewBox="0 0 595.3 844" xmlns="http://www.w3.org/2000/svg">
  <defs>
    <style>

      .cls-4, .title, .sup-title {
        letter-spacing: 0.05em;
      }

      .cls-3, .cls-4 {
        fill: #f5f2ef;
      }

      .cls-5 {
        fill: #f9322c;
      }

      .hat {
        fill: none;
        //stroke: #010101;
        stroke: #222;
        stroke-linecap: round;
        stroke-linejoin: round;
        stroke-width: 3px;
      }

      .title {
        font-size: 100px;
        //letter-spacing: -.05em;
      }

      .title, .cls-4, .cls-9 {
        font-family: Raleway-Medium, Raleway;
        font-weight: 500;
      }

      .cls-4 {
        font-size: 24px;
      }

      .cls-6 {
        //fill: #e1dacb;
        fill: #f5f2ef;
      }

      .cls-9 {
        //fill: #675a41;
        fill:#222;
        font-size: 18px;
      }

      .sup-title {
        font-family: Raleway-Regular, Raleway;
        font-size: 64px;
      }
    </style>
  </defs>
  <rect class="cls-5" width="595.28" height="266.55"/>
  <rect class="cls-6" y="266.55" width="595.28" height="575.34"/>
  <text class="cls-9" transform="translate(27.3 766.84)">
    <tspan x="0" y="0">Как писать код с аккуратностью, уважением</tspan>
    <tspan x="0" y="21.6">к читателю и стилем — даже если вы</tspan>
    <tspan x="0" y="43.2">новичок</tspan>
  </text>


  <text class="cls-3" transform="translate(27.3 131.36)">
    <tspan class="sup-title">ДЕНДИ</tspan>
    <tspan class="title" x="0" y="97.2">КОД</tspan>
  </text>
  <text class="cls-4" transform="translate(27.3 49.46)">
    <tspan x="0" y="0">Черняев Александр</tspan>
  </text>
  <g>
    <path class="cls-5" d="m224.28,554.87v61.91l75.62,6.02s66.48-43.21,103.46-44.88l-1.45-29.09s-98.06,28.25-177.63,6.02Z"/>
    <path class="hat" d="m217.79,620.78c-2.8-108.92-26.64-248.65-26.64-248.65,0,0,104.17-56.37,227.18-13.72-14.49,54.23-20.57,216.74-20.57,216.74"/>
    <path class="hat" d="m215.69,576.67c-86.26-12.76-78.47,24.64-61.01,49.25,17.45,24.62,67.94,40.82,158,17.14,61.95-16.29,90.37,9.98,129.33,9.35,57.65-.93,79.47-76.97-13.71-77.6-93.18-.62-142.11,69.49-186.98,73.23"/>
    <path class="hat" d="m238.84,654.56c61.08-10.91,90.59-56.62,147.69-68.84,57.11-12.21,97.08,1.12,100.03,22.75,2.25,16.52-5.44,27.9-5.44,27.9"/>
    <path class="hat" d="m145.23,607.77c16.83,24.93,42.17,32.18,42.17,32.18"/>
    <path class="hat" d="m217.41,609.1c36.99,10.91,86.44,8.72,86.44,8.72"/>
    <path class="hat" d="m214.25,557c114.94,11.27,184.85-11.47,184.85-11.47"/>
    <path class="hat" d="m214.25,583.23c-18.75-.62-43.47-2.8-47.94,8.73"/>
    <path class="hat" d="m216.62,591.96c-12.74-2.8-20.49-1.25-20.49-1.25"/>
    <path class="hat" d="m169.64,609.1c7.17,11.69,28.36,20.26,28.36,20.26"/>
    <path class="hat" d="m450.11,591.96c25.87,4.99,34.28,22.44,27.11,35.21-7.17,12.78-20.26,17.45-20.26,17.45"/>
    <path class="hat" d="m350.7,609.1c29.29-11.84,56.09-17.98,56.09-17.98"/>
    <path class="hat" d="m436.71,600.11c19.32,3.38,28.18,10.55,28.18,10.55"/>
    <path class="hat" d="m220.12,569.52c10.91,1.25,23.06,0,23.06,0"/>
    <path class="hat" d="m220.12,577.93c9.35,4.36,18.72,3.14,18.72,3.14"/>
    <path class="hat" d="m220.12,588.84c9.35,2.49,16.83,1.44,16.83,1.44"/>
    <path class="hat" d="m220.12,600.11c11.84,2.76,15.58,0,15.58,0"/>
    <path class="hat" d="m198,377.86c18.07-9.35,47.68-14.34,47.68-14.34"/>
    <path class="hat" d="m203.92,392.36c13.71-5.92,31.79-10.6,31.79-10.6"/>
    <path class="hat" d="m206.37,404.67c3.43-1.4,10.24-4.36,15.47-4.36"/>
    <path class="hat" d="m229.48,398.43c9.34-2.18,16.19-2.18,16.19-2.18"/>
    <path class="hat" d="m206.37,414.95c14.06-5.61,28.09-4.99,28.09-4.99"/>
    <path class="hat" d="m209.84,421.81c9.35-2.49,14.65-2.49,14.65-2.49"/>
    <path class="hat" d="m219.81,544.28c21.19.93,25.87,0,25.87,0"/>
    <path class="hat" d="m219.81,537.11c4.99.62,12.93,0,12.93,0"/>
    <path class="hat" d="m227.91,488.5s-5.3-1.25-13.66-1.87l10.23-3.74"/>
    <path class="hat" d="m311.43,352.93c53.6-4.05,99.41,10.6,99.41,10.6"/>
    <path class="hat" d="m346.02,363.53c42.07-.31,60.77,10.91,60.77,10.91"/>
    <path class="hat" d="m376.41,376.62c11.37-.23,27.58,5.14,27.58,5.14"/>
    <path class="hat" d="m403.99,392.36c-7.79-1.71-25.24-3.27-25.24-3.27"/>
    <path class="hat" d="m395.89,554.87c-21.19,7.17-68.25,14.65-68.25,14.65"/>
    <path class="hat" d="m333.25,579.58c23.37-1.03,56.95-12.25,56.95-12.25"/>
    <path class="hat" d="m349.14,586.04c18.7-4.05,25.24-8.1,25.24-8.1"/>
    <path class="hat" d="m393.08,537.39c-27.74,7.83-59.83,8.14-59.83,8.14"/>
    <path class="hat" d="m336.36,541.09c17.45-.78,26.8-3.17,26.8-3.17"/>
    <path class="hat" d="m371.89,537.11c9.66-.93,21.19-4.67,21.19-4.67"/>
    <path class="hat" d="m352.26,532.44c17.45-1.87,30.23-7.88,39.11-9.97"/>
    <path class="hat" d="m370.33,517.79c8.1.93,25.55-5.61,25.55-5.61"/>
    <path class="hat" d="m378.75,508.44c10.91-1.56,17.14-5.61,17.14-5.61"/>
    <path class="hat" d="m387.32,400.3c10.13-.31,16.67,0,16.67,0"/>
    <path class="hat" d="m312.68,643.07c43.01-10.28,46.43-16.83,64.51-15.27"/>
  </g>
</svg>
